<svg xmlns="http://www.w3.org/2000/svg">
  <symbol id="icon-cpu" viewBox="0 0 24 24">
    <rect x="4" y="4" width="16" height="16" rx="2"/>
    <rect x="9" y="9" width="6" height="6"/>
    <path d="M9 2v2M15 2v2M9 20v2M15 20v2M2 9h2M2 15h2M20 9h2M20 15h2"/>
  </symbol>
  <symbol id="icon-bot" viewBox="0 0 24 24">
    <path d="M12 8V4"/>
    <circle cx="12" cy="3" r="1"/>
    <rect x="5" y="8" width="14" height="10" rx="2"/>
    <path d="M8 18v2M16 18v2M9 13h.01M15 13h.01M10 16h4"/>
  </symbol>
  <symbol id="icon-brain" viewBox="0 0 24 24">
    <path d="M9 3a3 3 0 0 0-3 3 3 3 0 0 0-2 5 3 3 0 0 0 2 5 3 3 0 0 0 3 3"/>
    <path d="M15 3a3 3 0 0 1 3 3 3 3 0 0 1 2 5 3 3 0 0 1-2 5 3 3 0 0 1-3 3"/>
    <path d="M9 3v18M15 3v18M9 8h2M13 8h2M9 14h2M13 14h2"/>
  </symbol>
  <symbol id="icon-wrench" viewBox="0 0 24 24">
    <path d="M14.7 6.3a4 4 0 0 0 5 5L11 20a2.8 2.8 0 0 1-4-4l8.7-8.7Z"/>
    <path d="M18 5l1 1M5 19l2-2"/>
  </symbol>
  <symbol id="icon-calendar" viewBox="0 0 24 24">
    <rect x="3" y="4" width="18" height="17" rx="2"/>
    <path d="M8 2v4M16 2v4M3 10h18"/>
  </symbol>
  <symbol id="icon-users" viewBox="0 0 24 24">
    <path d="M16 21v-2a4 4 0 0 0-4-4H7a4 4 0 0 0-4 4v2"/>
    <circle cx="9.5" cy="7" r="4"/>
    <path d="M22 21v-2a4 4 0 0 0-3-3.87M16 3.13a4 4 0 0 1 0 7.75"/>
  </symbol>
  <symbol id="icon-graduation" viewBox="0 0 24 24">
    <path d="M22 10 12 5 2 10l10 5 10-5Z"/>
    <path d="M6 12v5c3 2 9 2 12 0v-5M22 10v6"/>
  </symbol>
  <symbol id="icon-trophy" viewBox="0 0 24 24">
    <path d="M8 21h8M12 17v4M7 4h10v6a5 5 0 0 1-10 0V4Z"/>
    <path d="M7 7H4a2 2 0 0 0 2 4h1M17 7h3a2 2 0 0 1-2 4h-1"/>
  </symbol>
  <symbol id="icon-rocket" viewBox="0 0 24 24">
    <path d="M4.5 16.5c-1 1-1.5 2.5-1.5 4.5 2 0 3.5-.5 4.5-1.5"/>
    <path d="M9 15 4 10l3-3 5 2"/>
    <path d="M15 9l2 5 3-3-5-5"/>
    <path d="M9 15c4-1 8-5 10-12-7 2-11 6-12 10l2 2Z"/>
  </symbol>
  <symbol id="icon-mail" viewBox="0 0 24 24">
    <rect x="3" y="5" width="18" height="14" rx="2"/>
    <path d="m3 7 9 6 9-6"/>
  </symbol>
</svg>
