<?xml version="1.0" standalone="no"?>
<!DOCTYPE svg PUBLIC "-//W3C//DTD SVG 20010904//EN"
 "http://www.w3.org/TR/2001/REC-SVG-20010904/DTD/svg10.dtd">
<svg version="1.0" xmlns="http://www.w3.org/2000/svg"
 width="1600.000000pt" height="1131.000000pt" viewBox="0 0 1600.000000 1131.000000"
 preserveAspectRatio="xMidYMid meet">

<g transform="translate(0.000000,1131.000000) scale(0.100000,-0.100000)"
fill="#000000" stroke="none">
<path d="M4345 7292 c-11 -4 -48 -22 -83 -41 -52 -28 -131 -103 -430 -403
-202 -202 -368 -377 -370 -388 -3 -19 2 -20 115 -20 l119 0 314 315 c173 173
331 323 350 332 44 21 126 22 166 1 17 -9 130 -116 252 -237 l222 -221 285 0
c251 0 286 2 292 16 7 18 -113 145 -159 170 -20 10 -65 14 -165 14 -113 0
-145 4 -179 19 -27 12 -105 83 -220 199 -156 156 -189 184 -253 216 -67 33
-81 36 -155 35 -44 -1 -90 -4 -101 -7z"/>
<path d="M4140 6477 c-26 -9 -47 -29 -80 -79 -105 -157 -91 -152 -485 -158
-289 -5 -323 -7 -355 -24 -19 -10 -137 -121 -262 -245 -204 -202 -230 -233
-260 -296 -30 -65 -33 -78 -33 -171 0 -165 -3 -161 442 -607 206 -207 381
-377 388 -377 20 0 25 24 25 130 0 90 -2 101 -24 127 -13 15 -157 161 -320
323 -246 245 -298 302 -311 339 -38 113 -20 146 215 379 139 139 201 194 228
203 20 6 42 16 48 21 6 4 108 7 225 6 206 -3 214 -4 217 -23 2 -12 -29 -68
-78 -140 -90 -135 -91 -138 -62 -280 13 -59 21 -81 34 -83 12 -2 67 73 207
285 105 158 227 342 271 408 150 224 163 245 152 258 -14 16 -138 19 -182 4z"/>
<path d="M4377 6258 c-81 -123 -192 -290 -247 -373 -125 -186 -513 -774 -558
-843 -43 -68 -45 -74 -28 -97 12 -16 29 -20 95 -23 136 -7 138 -6 211 106 81
124 101 155 187 282 39 58 194 291 344 518 l273 412 261 0 c273 0 285 -2 285
-44 0 -11 -24 -56 -53 -100 -30 -45 -97 -146 -150 -226 -54 -80 -97 -153 -97
-162 0 -23 91 -154 116 -168 14 -8 28 -9 38 -3 13 7 136 178 136 189 0 2 91
140 203 306 112 167 216 327 233 355 52 94 90 88 -547 91 l-555 2 -147 -222z"/>
<path d="M5721 6226 c-6 -7 -36 -83 -65 -167 -88 -252 -163 -462 -175 -492 -6
-16 -11 -39 -11 -53 0 -13 44 -120 99 -236 54 -117 111 -241 126 -276 16 -35
36 -67 46 -72 10 -6 127 -10 263 -10 l246 0 15 24 c34 52 258 543 258 566 0
14 -27 102 -61 195 -33 94 -86 244 -118 335 -31 91 -64 173 -72 183 -14 15
-40 17 -277 17 -210 0 -265 -3 -274 -14z m411 -193 c8 -10 54 -129 102 -265
l87 -246 -25 -59 c-62 -147 -155 -331 -171 -336 -23 -9 -247 -8 -261 1 -24 15
-184 361 -184 398 0 12 13 58 29 101 16 43 54 149 85 236 31 87 62 164 68 172
10 11 42 14 134 15 103 0 123 -3 136 -17z"/>
<path d="M6996 6218 c-8 -13 -39 -93 -69 -178 -31 -85 -81 -225 -112 -310 -31
-85 -86 -236 -122 -335 -36 -99 -83 -229 -105 -290 -54 -147 -54 -149 -27
-169 21 -14 73 -16 451 -16 l428 0 16 25 c9 13 33 73 54 132 21 60 52 147 70
196 37 102 42 86 -69 217 -39 46 -71 89 -71 95 0 7 27 88 61 181 122 341 149
418 149 430 0 7 -7 20 -16 28 -13 14 -56 16 -319 16 l-305 0 -14 -22z m360
-185 c7 -10 14 -28 14 -39 0 -18 -59 -190 -100 -291 -9 -22 -15 -23 -120 -23
-149 0 -149 -1 -80 186 72 195 61 184 177 184 79 0 98 -3 109 -17z m-78 -571
c57 -60 107 -134 104 -155 -5 -39 -54 -162 -70 -174 -12 -10 -75 -13 -238 -13
-189 0 -225 2 -238 16 -9 8 -16 21 -16 29 0 32 103 291 122 308 17 14 42 17
165 17 l145 0 26 -28z"/>
<path d="M7986 6218 c-8 -13 -35 -81 -60 -153 -24 -71 -70 -202 -101 -290 -31
-88 -65 -182 -74 -210 -10 -27 -16 -57 -13 -65 3 -8 46 -105 97 -215 51 -110
107 -233 125 -273 19 -40 41 -77 51 -83 23 -12 485 -12 508 0 9 5 37 52 60
103 87 185 183 394 201 435 l19 42 -80 228 c-44 125 -98 279 -119 341 -22 63
-46 125 -55 138 l-15 24 -265 0 c-263 0 -265 0 -279 -22z m419 -191 c8 -13 26
-55 39 -93 13 -38 51 -147 85 -242 l60 -172 -43 -98 c-24 -53 -65 -142 -92
-197 l-49 -100 -130 -3 c-71 -1 -135 1 -141 5 -15 10 -73 126 -140 277 l-52
118 18 52 c113 324 154 435 166 454 14 21 21 22 139 22 119 0 125 -1 140 -23z"/>
<path d="M8886 6219 c-13 -19 -12 -27 4 -74 36 -103 16 -95 224 -95 164 0 185
-2 199 -18 23 -25 22 -38 -14 -134 -17 -46 -50 -137 -74 -203 -24 -66 -71
-196 -105 -290 -164 -450 -166 -456 -131 -475 25 -13 126 -13 151 0 10 5 22
22 28 37 66 179 120 331 292 808 40 110 81 217 93 238 l21 37 142 0 c116 0
145 3 158 16 9 8 16 19 16 23 0 16 -40 124 -51 137 -9 12 -97 14 -475 14 -459
0 -463 0 -478 -21z"/>
<path d="M10056 6224 c-9 -8 -16 -21 -16 -27 0 -17 40 -120 52 -134 8 -10 57
-13 183 -13 235 0 234 1 161 -196 -24 -66 -67 -182 -95 -259 -27 -77 -73 -202
-100 -277 -28 -75 -57 -151 -66 -167 l-15 -31 -243 -2 -242 -3 -23 -49 c-13
-27 -26 -65 -29 -84 -11 -64 -28 -62 562 -62 522 0 532 0 550 20 21 23 16 46
-27 138 l-20 42 -125 0 c-68 0 -133 5 -144 10 -26 15 -24 45 12 142 17 46 50
137 74 203 155 433 196 539 211 556 16 17 33 19 218 19 111 0 207 4 214 8 16
11 52 104 52 135 0 13 -5 28 -12 35 -9 9 -148 12 -564 12 -489 0 -554 -2 -568
-16z"/>
<path d="M11413 6232 c-7 -4 -39 -82 -72 -172 -32 -91 -87 -241 -121 -335 -34
-93 -81 -224 -105 -290 -24 -66 -71 -196 -104 -289 -34 -93 -61 -174 -61 -181
0 -7 8 -19 18 -28 17 -15 58 -17 385 -17 419 0 388 -7 421 92 18 54 18 59 2
83 l-16 25 -246 0 c-150 0 -253 4 -265 10 -28 15 -24 40 25 175 25 66 74 203
111 305 115 321 147 405 163 423 13 15 35 17 178 17 l164 0 17 -26 c16 -26 16
-29 -6 -88 -48 -126 -42 -138 75 -134 75 3 79 4 92 31 16 33 132 357 132 368
0 4 -7 15 -16 23 -13 14 -62 16 -387 16 -205 0 -378 -4 -384 -8z"/>
<path d="M12402 6227 c-17 -20 -192 -507 -192 -533 0 -13 10 -30 23 -38 12 -8
121 -53 242 -101 121 -47 223 -92 227 -98 4 -7 8 -21 8 -32 0 -29 -98 -288
-113 -297 -7 -4 -143 -8 -302 -8 -331 0 -299 9 -336 -97 -20 -58 -17 -78 12
-93 28 -16 741 -13 761 3 9 6 55 118 102 247 138 383 133 367 116 384 -8 8
-80 40 -160 71 -80 31 -178 72 -218 91 -40 19 -76 34 -81 34 -4 0 -16 9 -26
20 -17 19 -16 23 20 125 21 58 45 114 55 125 16 18 32 20 221 22 l203 3 38 55
c38 57 47 97 26 118 -18 18 -611 17 -626 -1z"/>
<path d="M4578 5791 c-21 -8 -118 -153 -118 -177 0 -9 26 -54 59 -98 32 -45
63 -91 70 -103 6 -13 51 -78 100 -145 95 -132 232 -329 308 -443 26 -38 81
-117 123 -175 42 -58 96 -135 120 -172 l44 -68 104 0 c182 0 184 16 33 231
-60 84 -138 194 -173 244 -34 49 -103 148 -153 221 -95 138 -164 237 -307 439
-48 68 -103 148 -123 179 -38 60 -60 77 -87 67z"/>
<path d="M4302 4942 c-27 -27 -82 -109 -82 -121 0 -6 -4 -11 -8 -11 -9 0 -33
-44 -38 -67 -1 -6 39 -63 90 -127 50 -63 111 -140 134 -172 l44 -57 296 8
c266 6 299 9 315 25 18 16 18 19 2 49 -19 38 -117 175 -127 179 -5 2 -8 8 -8
13 0 19 -56 88 -67 84 -7 -2 -12 1 -10 8 1 9 -32 13 -120 17 -114 5 -124 7
-150 31 -48 44 -227 159 -248 159 -3 0 -13 -8 -23 -18z"/>
<path d="M3874 4782 c-14 -9 -116 -157 -140 -202 -15 -28 -19 -57 -19 -145 0
-104 2 -113 29 -160 17 -29 125 -145 252 -273 258 -259 280 -273 426 -280 102
-5 175 14 241 62 23 17 141 131 261 253 257 262 254 253 84 253 l-109 0 -162
-166 c-89 -91 -180 -175 -202 -187 -52 -27 -128 -28 -178 -3 -54 26 -401 376
-426 430 -19 38 -21 61 -21 223 0 135 -3 183 -13 191 -7 6 -17 8 -23 4z"/>
<path d="M5578 4759 c-31 -18 -20 -49 52 -151 39 -55 77 -112 84 -127 34 -64
16 -62 407 -51 334 9 561 15 1589 40 234 6 524 15 645 20 207 10 809 27 1735
50 501 12 1411 36 2125 55 l540 14 23 28 c38 46 74 112 67 123 -9 14 -7243 14
-7267 -1z"/>
</g>
</svg>
